<?xml version="1.0" encoding="UTF-8"?>
<svg xmlns="http://www.w3.org/2000/svg" xmlns:xlink="http://www.w3.org/1999/xlink" width="20pt" height="20pt" viewBox="0 0 20 20" version="1.1">
<g id="surface1">
<path style=" stroke:none;fill-rule:nonzero;fill:rgb(25.882353%,40.392157%,69.803922%);fill-opacity:1;" d="M 18.746094 0 L 1.09375 0 C 0.488281 0 0 0.492188 0 1.097656 L 0 18.746094 C 0 19.351562 0.492188 19.839844 1.097656 19.839844 L 18.746094 19.839844 C 19.351562 19.839844 19.839844 19.351562 19.839844 18.746094 L 19.839844 1.09375 C 19.839844 0.488281 19.351562 0 18.746094 0 Z M 18.746094 0 "/>
<path style=" stroke:none;fill-rule:nonzero;fill:rgb(100%,100%,100%);fill-opacity:1;" d="M 13.699219 19.839844 L 13.699219 12.167969 L 16.285156 12.167969 L 16.671875 9.164062 L 13.699219 9.164062 L 13.699219 7.253906 C 13.699219 6.386719 13.941406 5.792969 15.183594 5.792969 L 16.757812 5.792969 L 16.757812 3.113281 C 16.488281 3.078125 15.542969 2.996094 14.449219 2.996094 C 12.164062 2.996094 10.597656 4.390625 10.597656 6.957031 L 10.597656 9.164062 L 8.023438 9.164062 L 8.023438 12.167969 L 10.597656 12.167969 L 10.597656 19.839844 Z M 13.699219 19.839844 "/>
</g>
</svg>
