<?xml version="1.0" encoding="UTF-8"?>
<svg xmlns="http://www.w3.org/2000/svg" xmlns:xlink="http://www.w3.org/1999/xlink" width="20pt" height="20pt" viewBox="0 0 20 20" version="1.1">
<defs>
<linearGradient id="linear0" gradientUnits="userSpaceOnUse" x1="42.966156" y1="469.029648" x2="469.033748" y2="42.962056" gradientTransform="matrix(0.0390625,0,0,0.0390625,0,0)">
<stop offset="0" style="stop-color:rgb(100%,83.921569%,0%);stop-opacity:1;"/>
<stop offset="0.5" style="stop-color:rgb(100%,0.392157%,0%);stop-opacity:1;"/>
<stop offset="1" style="stop-color:rgb(84.705882%,0%,72.54902%);stop-opacity:1;"/>
</linearGradient>
<linearGradient id="linear1" gradientUnits="userSpaceOnUse" x1="163.042996" y1="348.953808" x2="348.953908" y2="163.042896" gradientTransform="matrix(0.0390625,0,0,0.0390625,0,0)">
<stop offset="0" style="stop-color:rgb(100%,39.215686%,0%);stop-opacity:1;"/>
<stop offset="0.5" style="stop-color:rgb(100%,0.392157%,0%);stop-opacity:1;"/>
<stop offset="1" style="stop-color:rgb(99.215686%,0%,33.72549%);stop-opacity:1;"/>
</linearGradient>
<linearGradient id="linear2" gradientUnits="userSpaceOnUse" x1="370.929133" y1="141.067671" x2="414.372785" y2="97.624019" gradientTransform="matrix(0.0390625,0,0,0.0390625,0,0)">
<stop offset="0" style="stop-color:rgb(95.294118%,0%,44.705882%);stop-opacity:1;"/>
<stop offset="1" style="stop-color:rgb(89.803922%,0%,59.215686%);stop-opacity:1;"/>
</linearGradient>
</defs>
<g id="surface1">
<path style=" stroke:none;fill-rule:nonzero;fill:url(#linear0);" d="M 19.941406 5.878906 C 19.890625 4.8125 19.722656 4.085938 19.476562 3.449219 C 19.222656 2.78125 18.832031 2.179688 18.320312 1.679688 C 17.820312 1.167969 17.21875 0.777344 16.550781 0.523438 C 15.914062 0.277344 15.1875 0.109375 14.121094 0.0585938 C 13.054688 0.0117188 12.714844 0 10 0 C 7.285156 0 6.945312 0.0117188 5.878906 0.0585938 C 4.8125 0.109375 4.085938 0.277344 3.449219 0.523438 C 2.78125 0.777344 2.179688 1.167969 1.679688 1.679688 C 1.167969 2.179688 0.777344 2.78125 0.523438 3.449219 C 0.277344 4.085938 0.109375 4.8125 0.0585938 5.875 C 0.0117188 6.945312 0 7.285156 0 10 C 0 12.714844 0.0117188 13.054688 0.0585938 14.121094 C 0.109375 15.1875 0.277344 15.914062 0.523438 16.550781 C 0.777344 17.21875 1.167969 17.820312 1.679688 18.320312 C 2.179688 18.832031 2.78125 19.222656 3.449219 19.476562 C 4.085938 19.722656 4.8125 19.890625 5.878906 19.941406 C 6.945312 19.988281 7.285156 20 10 20 C 12.714844 20 13.054688 19.988281 14.125 19.941406 C 15.1875 19.890625 15.914062 19.722656 16.550781 19.476562 C 17.894531 18.957031 18.957031 17.894531 19.476562 16.550781 C 19.722656 15.914062 19.890625 15.1875 19.941406 14.121094 C 19.988281 13.054688 20 12.714844 20 10 C 20 7.285156 19.988281 6.945312 19.941406 5.878906 Z M 18.140625 14.039062 C 18.09375 15.015625 17.933594 15.546875 17.796875 15.898438 C 17.460938 16.769531 16.769531 17.460938 15.898438 17.796875 C 15.546875 17.933594 15.015625 18.09375 14.039062 18.140625 C 12.988281 18.1875 12.671875 18.199219 10 18.199219 C 7.328125 18.199219 7.011719 18.1875 5.960938 18.140625 C 4.984375 18.09375 4.453125 17.933594 4.101562 17.796875 C 3.667969 17.636719 3.273438 17.378906 2.953125 17.046875 C 2.621094 16.726562 2.363281 16.332031 2.203125 15.898438 C 2.066406 15.546875 1.90625 15.015625 1.859375 14.039062 C 1.8125 12.988281 1.800781 12.671875 1.800781 10 C 1.800781 7.328125 1.8125 7.015625 1.859375 5.960938 C 1.90625 4.984375 2.066406 4.453125 2.203125 4.101562 C 2.363281 3.667969 2.621094 3.273438 2.953125 2.953125 C 3.273438 2.621094 3.667969 2.363281 4.101562 2.203125 C 4.453125 2.066406 4.984375 1.90625 5.960938 1.859375 C 7.011719 1.8125 7.328125 1.800781 10 1.800781 C 12.671875 1.800781 12.984375 1.8125 14.039062 1.859375 C 15.015625 1.90625 15.546875 2.066406 15.898438 2.203125 C 16.332031 2.363281 16.726562 2.621094 17.046875 2.953125 C 17.378906 3.273438 17.636719 3.667969 17.796875 4.101562 C 17.933594 4.453125 18.09375 4.984375 18.140625 5.960938 C 18.1875 7.011719 18.199219 7.328125 18.199219 10 C 18.199219 12.671875 18.1875 12.988281 18.140625 14.039062 Z M 18.140625 14.039062 "/>
<path style=" stroke:none;fill-rule:nonzero;fill:url(#linear1);" d="M 10 4.863281 C 7.164062 4.863281 4.863281 7.164062 4.863281 10 C 4.863281 12.835938 7.164062 15.136719 10 15.136719 C 12.835938 15.136719 15.136719 12.835938 15.136719 10 C 15.136719 7.164062 12.835938 4.863281 10 4.863281 Z M 10 13.332031 C 8.160156 13.332031 6.667969 11.839844 6.667969 10 C 6.667969 8.160156 8.160156 6.667969 10 6.667969 C 11.839844 6.667969 13.332031 8.160156 13.332031 10 C 13.332031 11.839844 11.839844 13.332031 10 13.332031 Z M 10 13.332031 "/>
<path style=" stroke:none;fill-rule:nonzero;fill:url(#linear2);" d="M 16.539062 4.660156 C 16.539062 5.324219 16 5.863281 15.339844 5.863281 C 14.675781 5.863281 14.136719 5.324219 14.136719 4.660156 C 14.136719 4 14.675781 3.460938 15.339844 3.460938 C 16 3.460938 16.539062 4 16.539062 4.660156 Z M 16.539062 4.660156 "/>
</g>
</svg>
