<?xml version="1.0" encoding="UTF-8"?>
<svg xmlns="http://www.w3.org/2000/svg" xmlns:xlink="http://www.w3.org/1999/xlink" width="20pt" height="20pt" viewBox="0 0 20 20" version="1.1">
<g id="surface1">
<path style=" stroke:none;fill-rule:nonzero;fill:rgb(0%,46.666667%,70.980392%);fill-opacity:1;" d="M 19.996094 20 L 20 20 L 20 12.664062 C 20 9.074219 19.226562 6.3125 15.03125 6.3125 C 13.015625 6.3125 11.664062 7.417969 11.109375 8.46875 L 11.050781 8.46875 L 11.050781 6.648438 L 7.074219 6.648438 L 7.074219 20 L 11.214844 20 L 11.214844 13.386719 C 11.214844 11.648438 11.546875 9.964844 13.703125 9.964844 C 15.824219 9.964844 15.859375 11.949219 15.859375 13.5 L 15.859375 20 Z M 19.996094 20 "/>
<path style=" stroke:none;fill-rule:nonzero;fill:rgb(0%,46.666667%,70.980392%);fill-opacity:1;" d="M 0.328125 6.648438 L 4.476562 6.648438 L 4.476562 20 L 0.328125 20 Z M 0.328125 6.648438 "/>
<path style=" stroke:none;fill-rule:nonzero;fill:rgb(0%,46.666667%,70.980392%);fill-opacity:1;" d="M 2.402344 0 C 1.074219 0 0 1.074219 0 2.402344 C 0 3.726562 1.074219 4.824219 2.402344 4.824219 C 3.726562 4.824219 4.804688 3.726562 4.804688 2.402344 C 4.800781 1.074219 3.726562 0 2.402344 0 Z M 2.402344 0 "/>
</g>
</svg>
