<?xml version="1.0" encoding="UTF-8"?>
<svg xmlns="http://www.w3.org/2000/svg" xmlns:xlink="http://www.w3.org/1999/xlink" width="20pt" height="20pt" viewBox="0 0 20 20" version="1.1">
<g id="surface1">
<path style=" stroke:none;fill-rule:nonzero;fill:rgb(33.333333%,67.45098%,93.333333%);fill-opacity:1;" d="M 17.960938 6.457031 C 17.960938 6.277344 17.953125 6.101562 17.945312 5.925781 C 18.757812 5.351562 19.441406 4.628906 20 3.800781 L 20 3.796875 C 19.253906 4.125 18.464844 4.339844 17.636719 4.445312 C 18.488281 3.9375 19.136719 3.140625 19.441406 2.179688 C 18.648438 2.652344 17.773438 2.984375 16.839844 3.171875 C 16.089844 2.371094 15.015625 1.875 13.847656 1.875 C 11.578125 1.875 9.75 3.71875 9.75 5.976562 C 9.75 6.300781 9.777344 6.613281 9.84375 6.910156 C 6.4375 6.746094 3.417969 5.109375 1.390625 2.621094 C 1.039062 3.234375 0.832031 3.9375 0.832031 4.695312 C 0.832031 6.113281 1.5625 7.371094 2.652344 8.101562 C 1.992188 8.089844 1.347656 7.898438 0.800781 7.597656 L 0.800781 7.640625 C 0.800781 9.632812 2.222656 11.289062 4.085938 11.671875 C 3.457031 11.84375 2.6875 11.835938 2.234375 11.734375 C 2.765625 13.359375 4.273438 14.554688 6.066406 14.59375 C 4.671875 15.683594 2.898438 16.339844 0.980469 16.339844 C 0.644531 16.339844 0.324219 16.324219 0 16.285156 C 1.816406 17.457031 3.96875 18.125 6.289062 18.125 C 13.835938 18.125 17.960938 11.875 17.960938 6.457031 Z M 17.960938 6.457031 "/>
</g>
</svg>
