<?xml version="1.0" standalone="no"?>
<!DOCTYPE svg PUBLIC "-//W3C//DTD SVG 20010904//EN"
 "http://www.w3.org/TR/2001/REC-SVG-20010904/DTD/svg10.dtd">
<svg version="1.0" xmlns="http://www.w3.org/2000/svg"
 width="700.000000pt" height="700.000000pt" viewBox="0 0 700.000000 700.000000"
 preserveAspectRatio="xMidYMid meet">
<metadata>
Created by potrace 1.11, written by Peter Selinger 2001-2013
</metadata>
<g transform="translate(0.000000,700.000000) scale(0.100000,-0.100000)"
fill="#000000" stroke="none">
<path d="M944 6981 c-55 -25 -100 -76 -113 -127 -6 -24 -11 -93 -11 -153 l0
-111 -132 -1 c-159 -2 -156 -2 -238 -24 -192 -54 -343 -201 -418 -407 l-27
-73 0 -2785 c0 -2707 1 -2787 19 -2845 29 -92 89 -194 153 -261 88 -92 172
-141 298 -175 67 -18 155 -19 2210 -19 2103 0 2141 0 2212 20 217 60 386 233
443 454 19 75 20 114 20 1022 l0 944 53 73 c62 85 167 247 196 306 12 22 23
41 26 41 3 0 0 -32 -9 -75 -8 -37 -20 -180 -19 -230 2 -179 214 -269 343 -147
40 38 59 87 66 169 7 86 31 250 45 311 6 26 12 56 15 66 9 46 57 199 83 267
61 157 136 299 233 444 102 154 162 225 358 427 57 60 118 128 134 151 96 140
133 329 95 492 -6 28 -29 87 -50 132 -48 101 -142 201 -245 262 l-72 42 52 92
c29 51 95 166 148 257 142 246 146 255 167 333 26 96 22 253 -8 347 -59 185
-211 337 -395 396 -190 60 -399 27 -550 -86 -91 -68 -139 -123 -198 -230 -14
-25 -51 -90 -83 -145 -99 -170 -171 -295 -223 -387 -63 -110 -97 -160 -144
-212 -17 -19 -18 -9 -18 241 0 224 -3 270 -19 335 -36 141 -113 261 -220 344
-133 103 -235 134 -443 134 l-138 0 0 113 c0 133 -10 175 -53 224 -104 118
-295 82 -345 -66 -7 -19 -12 -87 -12 -152 l0 -119 -205 0 c-113 0 -205 3 -205
8 0 4 -2 63 -3 132 -2 96 -7 133 -20 157 -34 63 -86 98 -160 108 -62 9 -117
-9 -161 -51 -56 -55 -66 -89 -66 -230 l0 -124 -210 0 c-161 0 -210 3 -211 13
0 6 -1 59 -1 117 0 64 -6 120 -15 145 -51 144 -249 181 -348 63 -42 -50 -48
-74 -49 -208 l-1 -125 -205 -3 -205 -2 0 112 c1 119 -8 165 -39 212 -66 96
-222 111 -308 29 -49 -47 -61 -88 -64 -213 -1 -63 -3 -121 -3 -127 -1 -10 -50
-13 -211 -13 l-210 0 0 118 c0 64 -4 133 -10 152 -11 40 -72 107 -110 122 -50
19 -123 19 -166 -1z m5593 -2258 c31 -40 51 -108 46 -152 -7 -57 -37 -101
-144 -211 -55 -58 -120 -127 -143 -154 -22 -27 -48 -57 -56 -66 -8 -8 -42 -52
-74 -95 -32 -44 -62 -84 -67 -89 -7 -8 152 397 195 499 7 17 26 62 41 100 15
39 35 88 45 110 9 22 25 61 35 87 l18 48 40 -23 c22 -12 51 -36 64 -54z"/>
</g>
</svg>
